<svg width="67" height="67" viewBox="0 0 67 67" fill="none" xmlns="http://www.w3.org/2000/svg">
<path d="M33.5 67C52.0015 67 67 52.0015 67 33.5C67 14.9985 52.0015 0 33.5 0C14.9985 0 0 14.9985 0 33.5C0 52.0015 14.9985 67 33.5 67Z" fill="#DB007D"/>
<path d="M33.8655 6.09115L34.0482 4.75114C34.3528 4.75114 34.6573 4.75114 34.9009 4.69024C35.1446 4.62933 35.3882 4.56842 35.5709 4.4466C35.7537 4.32478 35.9364 4.20296 36.0582 4.08114C36.18 3.95933 36.3018 3.7766 36.4237 3.59387L38.19 3.7766L37.3982 11.0248L35.1446 10.7812L35.6318 6.27388L33.8655 6.09115Z" fill="white"/>
<path d="M48.6054 11.6949C48.5445 11.8776 48.4226 12.1213 48.2399 12.304C48.118 12.5476 47.8745 12.7304 47.6917 12.9131C47.4481 13.0958 47.2044 13.2785 46.8999 13.4004C46.5953 13.5222 46.2299 13.644 45.8035 13.644C45.3771 13.644 44.8899 13.644 44.4027 13.5222C43.8545 13.4004 43.3062 13.2176 42.6362 12.9131L42.2099 12.7913C41.5399 12.4867 40.9917 12.1822 40.5653 11.8167C40.139 11.5122 39.8345 11.1467 39.5299 10.8422C39.2863 10.5376 39.1035 10.1722 38.9817 9.86764C38.8599 9.56309 38.8599 9.19764 38.8599 8.954C38.8599 8.64946 38.9208 8.40582 38.9817 8.10127C39.0426 7.85764 39.1036 7.614 39.2254 7.43127L39.3471 7.18764C39.408 7.00491 39.5299 6.76127 39.7126 6.57855C39.8344 6.33491 40.0171 6.15218 40.2608 5.96945C40.5044 5.78672 40.7481 5.604 41.0527 5.48218C41.3572 5.36036 41.7226 5.29945 42.149 5.23854C42.5753 5.23854 43.0017 5.23854 43.5499 5.36036C44.098 5.48218 44.6463 5.6649 45.3163 5.96945L45.6817 6.15218C46.3517 6.45673 46.8999 6.76127 47.3262 7.06582C47.7526 7.37037 48.1181 7.73582 48.3617 8.04036C48.6054 8.34491 48.7881 8.71036 48.9099 9.01491C49.0317 9.31946 49.0317 9.624 49.0317 9.92855C49.0317 10.2331 48.9708 10.4767 48.9099 10.7813C48.849 11.0249 48.7881 11.2685 48.6663 11.4513L48.6054 11.6949ZM46.5345 10.5376C46.5954 10.3549 46.6562 10.1113 46.7171 9.92855C46.7171 9.68491 46.7171 9.44127 46.5953 9.19764C46.4735 8.954 46.2908 8.71036 46.0471 8.40582C45.8035 8.16218 45.3771 7.91855 44.8899 7.67491C44.4026 7.43127 43.9153 7.30946 43.5499 7.24855C43.1844 7.18764 42.8799 7.24855 42.5754 7.30946C42.3317 7.37036 42.0881 7.49218 41.9663 7.67491C41.7836 7.85764 41.6617 8.04036 41.6008 8.22309L41.5399 8.34491C41.479 8.52764 41.4181 8.77127 41.3572 9.01491C41.3572 9.25855 41.3571 9.50218 41.479 9.74582C41.6008 9.98946 41.7835 10.294 42.0271 10.5376C42.2708 10.7813 42.6972 11.0249 43.1845 11.2685C43.6717 11.5122 44.159 11.634 44.5244 11.6949C44.8899 11.7558 45.1944 11.6949 45.499 11.634C45.7426 11.5731 45.9863 11.3904 46.169 11.2076C46.3517 11.0249 46.4736 10.8422 46.5345 10.6595V10.5376Z" fill="white"/>
<path d="M56.4018 20.4658C56.2191 20.5876 56.0363 20.7094 55.7927 20.8921C55.5491 21.0139 55.3054 21.1358 55.0009 21.1967C54.6963 21.2576 54.3918 21.3185 54.0872 21.3185C53.7218 21.3185 53.3563 21.2576 52.9909 21.0748C52.6254 20.953 52.1991 20.7094 51.7727 20.3439C51.3463 20.0394 50.92 19.5521 50.4327 19.0039L50.1282 18.6994C49.6409 18.1512 49.3363 17.6639 49.0927 17.1767C48.8491 16.6894 48.6663 16.263 48.6054 15.8367C48.5445 15.4103 48.4836 15.0448 48.5445 14.7403C48.6054 14.3748 48.6663 14.0703 48.7882 13.8267C48.91 13.583 49.0927 13.3394 49.2145 13.0958C49.3972 12.913 49.58 12.7303 49.7018 12.6085L49.9454 12.4258C50.1282 12.3039 50.3109 12.1212 50.5545 11.9994C50.7982 11.8776 51.0418 11.7558 51.3463 11.6948C51.6509 11.6339 51.9554 11.573 52.26 11.573C52.6254 11.573 52.9909 11.6948 53.3563 11.8167C53.7218 11.9385 54.1482 12.1821 54.5745 12.5476C55.0009 12.8521 55.4272 13.3394 55.9145 13.8876L56.2191 14.1921C56.7063 14.7403 57.0109 15.2276 57.3154 15.7148C57.5591 16.2021 57.7418 16.6285 57.8027 17.0548C57.8636 17.4812 57.9245 17.8467 57.8636 18.1512C57.8027 18.5167 57.7418 18.7603 57.62 19.0648C57.4982 19.3085 57.3154 19.5521 57.1936 19.7958C57.0109 19.9785 56.8282 20.1612 56.7063 20.283L56.4018 20.4658ZM55.0009 18.5167C55.1836 18.3948 55.3054 18.2121 55.4272 18.0294C55.5491 17.8467 55.61 17.603 55.61 17.2985C55.61 16.9939 55.5491 16.6894 55.4272 16.3848C55.3054 16.0194 55.0618 15.6539 54.6963 15.2276C54.3309 14.8012 53.9654 14.4967 53.6609 14.253C53.3563 14.0703 53.0518 13.9485 52.7472 13.8876C52.5036 13.8267 52.1991 13.8876 52.0163 13.9485C51.7727 14.0094 51.59 14.1312 51.4682 14.253L51.4072 14.3139C51.2245 14.4358 51.1027 14.6185 50.9809 14.8012C50.8591 14.9839 50.7982 15.2276 50.7372 15.5321C50.7372 15.8367 50.7982 16.1412 50.92 16.5067C51.0418 16.8721 51.2854 17.2376 51.6509 17.6639C52.0163 18.0903 52.3209 18.3948 52.6863 18.5776C52.9909 18.7603 53.2954 18.8821 53.6 18.943C53.9045 19.0039 54.1482 18.943 54.3309 18.8821C54.5745 18.8212 54.7572 18.6994 54.94 18.5776L55.0009 18.5167Z" fill="white"/>
<path d="M63.4063 32.4039L54.6963 26.1303L54.3308 24.2421L63.0408 30.5158L63.4063 32.4039ZM55.9144 32.6476C55.7926 32.0994 55.7926 31.6121 55.8535 31.1858C55.9144 30.8203 56.0363 30.5158 56.219 30.2721C56.4017 30.0285 56.5844 29.8458 56.8281 29.7239C57.0717 29.6021 57.2544 29.5412 57.4372 29.4803L57.6199 29.4194C57.8026 29.3585 57.9854 29.3585 58.229 29.4194C58.4726 29.4194 58.7163 29.5412 58.9599 29.663C59.2035 29.8458 59.4472 30.0894 59.6299 30.3939C59.8126 30.6985 59.9954 31.1858 60.1172 31.7339L60.1781 31.9776C60.2999 32.5258 60.2999 33.013 60.239 33.4394C60.1781 33.8049 60.0563 34.1094 59.8735 34.353C59.6908 34.5967 59.5081 34.7794 59.3254 34.8403C59.0817 34.9621 58.899 35.023 58.7163 35.0839L58.5335 35.1449C58.3508 35.2058 58.1681 35.2058 57.9244 35.1449C57.6808 35.1449 57.4372 35.023 57.1935 34.9012C56.9499 34.7794 56.7063 34.5358 56.5235 34.1703C56.2799 33.8658 56.1581 33.3785 56.0363 32.8303L55.9144 32.6476ZM57.1326 32.5258C57.1935 32.7694 57.2544 32.9521 57.3154 33.1349C57.3763 33.3176 57.4981 33.3785 57.6199 33.5003C57.7417 33.5612 57.8026 33.6221 57.9244 33.683C58.0463 33.683 58.1681 33.683 58.229 33.683H58.2899C58.4117 33.683 58.4726 33.6221 58.5944 33.5612C58.7163 33.5003 58.7772 33.4394 58.8381 33.3176C58.899 33.1958 58.9599 33.0739 58.9599 32.8912C58.9599 32.7085 58.9599 32.5258 58.899 32.2821C58.8381 32.0385 58.7772 31.8558 58.7163 31.673C58.6554 31.4903 58.5335 31.4294 58.4726 31.3076C58.3508 31.2467 58.2899 31.1858 58.1681 31.1249C58.0463 31.1249 57.9244 31.1249 57.8635 31.1249H57.8026C57.6808 31.1249 57.559 31.1858 57.4981 31.2467C57.3763 31.3076 57.3154 31.4294 57.2544 31.4903C57.1935 31.6121 57.1326 31.7339 57.1326 31.9167C57.0717 32.0385 57.0717 32.2821 57.1326 32.5258ZM57.6199 24.6076C57.4981 23.9985 57.4981 23.5112 57.559 23.1458C57.6199 22.7803 57.7417 22.4758 57.9244 22.2321C58.1072 21.9885 58.2899 21.8058 58.5335 21.7449C58.7772 21.623 58.9599 21.5621 59.1426 21.5012L59.3254 21.4403C59.5081 21.3794 59.6908 21.3794 59.9344 21.4403C60.1781 21.4403 60.4217 21.5621 60.6654 21.6839C60.909 21.8667 61.1526 22.0494 61.3353 22.4149C61.5181 22.7194 61.7008 23.2067 61.8226 23.7549L61.8835 23.9985C62.0053 24.6076 62.0053 25.0949 61.9444 25.4603C61.8835 25.8258 61.7617 26.1303 61.579 26.3739C61.3963 26.6176 61.2135 26.8003 61.0308 26.8612C60.7872 26.983 60.6044 27.0439 60.4217 27.1049L60.239 27.1658C60.1172 27.1658 59.9954 27.2267 59.8126 27.2267C59.6908 27.2267 59.5081 27.2267 59.3254 27.1658C59.1426 27.1049 59.0208 27.0439 58.8381 26.983C58.6554 26.8612 58.5335 26.7394 58.3508 26.5567C58.229 26.3739 58.0463 26.1303 57.9244 25.8867C57.8026 25.643 57.6808 25.2776 57.6199 24.9121V24.6076ZM58.8381 24.4858C58.899 24.7294 58.9599 24.9121 59.0208 25.0949C59.0817 25.2776 59.2035 25.3385 59.3254 25.4603C59.4472 25.5212 59.5081 25.5821 59.6299 25.643C59.7517 25.643 59.8735 25.643 59.9344 25.643H59.9954C60.1172 25.643 60.239 25.5821 60.2999 25.5212C60.4217 25.4603 60.4826 25.3994 60.5435 25.2776C60.6044 25.1558 60.6654 25.0339 60.6654 24.8512C60.6654 24.6685 60.6654 24.4858 60.6044 24.2421C60.5435 23.9985 60.4826 23.8158 60.4217 23.633C60.3608 23.5112 60.239 23.3894 60.1781 23.2676C60.0563 23.2067 59.9954 23.1458 59.8735 23.0849C59.7517 23.0849 59.6299 23.0849 59.5081 23.0849H59.4472C59.3254 23.0849 59.2644 23.1458 59.1426 23.2067C59.0208 23.2676 58.9599 23.3285 58.899 23.4503C58.8381 23.5721 58.7772 23.6939 58.7772 23.8767C58.7772 24.0594 58.7772 24.2421 58.8381 24.4858Z" fill="white"/>
<path d="M54.6964 40.6265L55.61 38.5556L62.31 41.4793L59.9954 46.9002C59.7518 47.4484 59.5082 47.8747 59.2645 48.2402C59.0209 48.5447 58.7773 48.7884 58.4727 48.9711C58.2291 49.1538 57.9854 49.2147 57.7418 49.2147C57.4982 49.2147 57.2545 49.1538 57.0109 49.032L56.8891 48.9711C56.6454 48.8493 56.4627 48.7275 56.3409 48.5447C56.2191 48.362 56.0973 48.2402 56.0363 48.0575C55.9754 47.8747 55.9145 47.692 55.9145 47.5093C55.9145 47.3265 55.9145 47.2047 55.9145 47.0829C55.7927 47.2047 55.6709 47.3875 55.4882 47.5093C55.3054 47.6311 55.1836 47.692 55.0009 47.7529C54.8182 47.8138 54.6354 47.8138 54.4527 47.8138C54.27 47.8138 54.0264 47.7529 53.8436 47.692L52.8691 47.2656C52.6254 47.1438 52.3818 47.0829 52.26 47.0829C52.1382 47.0829 52.0164 47.0829 51.9554 47.0829H51.8945L52.8082 44.9511C52.8691 44.9511 52.93 44.9511 52.9909 44.9511C53.0518 44.9511 53.1736 45.012 53.2954 45.012L54.0873 45.3775C54.5136 45.5602 54.8182 45.5602 55.1227 45.4384C55.4273 45.3165 55.6709 45.012 55.8536 44.4638L57.0718 41.7229L54.6964 40.6265ZM58.5945 42.332L57.1936 45.4993C57.0718 45.8038 57.0109 46.0475 57.0718 46.2302C57.1327 46.4129 57.2545 46.5347 57.4373 46.6565C57.62 46.7175 57.8027 46.7175 57.9854 46.6565C58.1682 46.5956 58.3509 46.4129 58.4727 46.1084L59.8736 42.9411L58.5945 42.332Z" fill="white"/>
<path d="M51.2854 57.681L50.1282 56.5238L54.0263 52.6865L53.2954 51.8947L49.5191 55.6101L48.3618 54.3919L52.1382 50.6765L51.2854 49.8238L47.3263 53.7219L46.1082 52.5038L51.6509 47.0219L56.7672 52.1992L51.2854 57.681Z" fill="white"/>
<path d="M41.6009 54.5139C42.2709 54.2702 42.8191 54.0875 43.3673 53.9657C43.9155 53.9048 44.3418 53.8439 44.7682 53.9048C45.1945 53.9657 45.56 54.0266 45.8645 54.2093C46.1691 54.3312 46.4127 54.5139 46.6564 54.7575C46.9 54.9402 47.0827 55.1839 47.2045 55.4275C47.3264 55.6712 47.4482 55.8539 47.5091 56.0975L47.6309 56.3412C47.6918 56.5239 47.8136 56.7675 47.8745 57.0721C47.9354 57.3157 47.9355 57.6203 47.9355 57.9248C47.9355 58.2293 47.8745 58.5339 47.7527 58.8384C47.6309 59.143 47.4482 59.4475 47.2045 59.813C46.9609 60.1175 46.5955 60.4221 46.1691 60.7266C45.7427 61.0309 45.1945 61.3355 44.5245 61.5791L44.1591 61.7009C43.4891 61.9446 42.9409 62.1273 42.3927 62.2491C41.9055 62.3709 41.4182 62.3709 40.9918 62.3709C40.5655 62.3709 40.2609 62.31 39.9564 62.1882C39.6518 62.0664 39.4082 61.9446 39.2255 61.8227C39.0427 61.7009 38.86 61.5182 38.7382 61.3355C38.6164 61.1527 38.5555 61.0309 38.4945 60.9091L38.3727 60.7266L40.6264 59.813C40.6264 59.8739 40.7482 59.9348 40.8091 59.9957C40.9309 60.1175 41.1136 60.1784 41.2964 60.2393C41.54 60.3002 41.8445 60.3002 42.1491 60.3002C42.5145 60.3002 42.9409 60.1175 43.4891 59.9348C43.9764 59.7521 44.4027 59.5084 44.6464 59.2648C44.9509 59.0212 45.1336 58.7775 45.2555 58.5339C45.3773 58.2903 45.4382 58.0466 45.4382 57.803C45.4382 57.5593 45.3773 57.3157 45.3164 57.133L45.2555 57.0112C45.1945 56.8284 45.0727 56.6457 44.89 56.4021C44.7073 56.2193 44.5245 56.0975 44.22 55.9757C43.9154 55.8539 43.6109 55.8539 43.2455 55.8539C42.88 55.8539 42.4536 55.9757 41.9664 56.1584C41.4182 56.4021 40.9918 56.5848 40.7482 56.8284C40.4436 57.0721 40.2609 57.3157 40.1391 57.4984C40.0173 57.6812 39.9564 57.8639 39.9564 58.0466C39.9564 58.1684 39.9564 58.2902 39.9564 58.3512L37.7027 59.2648L37.7636 59.2039C37.7027 59.0821 37.6418 58.8993 37.6418 58.6557C37.5809 58.473 37.6418 58.2293 37.6418 57.9857C37.7027 57.7421 37.7636 57.4375 37.8855 57.1939C38.0073 56.8893 38.2509 56.6457 38.4945 56.3412C38.7991 56.0366 39.1036 55.7321 39.5909 55.4884C40.0173 55.1839 40.5655 54.9402 41.2355 54.6357L41.6009 54.5139Z" fill="white"/>
<path d="M33.9264 59.204L37.7636 63.7724L34.9009 63.7115L32.6473 60.9706L30.2718 63.6506L27.7136 63.5897L31.6118 59.204L31.6727 56.4022L33.9873 56.4631L33.9264 59.204Z" fill="white"/>
<path d="M24.6074 54.6356C25.2774 54.8792 25.8256 55.1838 26.2519 55.4883C26.6783 55.7928 27.0437 56.0974 27.2874 56.4019C27.531 56.7065 27.7137 57.0719 27.8356 57.3765C27.9574 57.681 28.0183 57.9856 28.0183 58.2901C28.0183 58.5947 28.0183 58.8992 27.9574 59.1428C27.8965 59.3865 27.8356 59.6301 27.7746 59.8128L27.6528 60.0565C27.5919 60.2392 27.4701 60.4828 27.3483 60.7265C27.2265 60.97 27.0437 61.1527 26.8001 61.3964C26.6174 61.5791 26.3128 61.7618 26.0083 61.9445C25.7037 62.0664 25.3383 62.1882 24.9728 62.2491C24.5465 62.31 24.1201 62.2491 23.5719 62.1882C23.0237 62.1273 22.4756 61.9445 21.8056 61.64L21.4401 61.5182C20.7701 61.2745 20.2219 60.97 19.7956 60.6656C19.3692 60.361 19.0037 60.1174 18.6992 59.8128C18.4556 59.5083 18.2119 59.2647 18.0901 58.9601C17.9683 58.6556 17.8465 58.4119 17.8465 58.1683C17.7856 57.9247 17.7856 57.681 17.8465 57.4983C17.9074 57.3156 17.9074 57.1328 17.9683 57.011L18.0292 56.8892L20.2828 57.8028C20.2828 57.8638 20.2828 57.9247 20.2828 58.1074C20.2828 58.2292 20.3437 58.4119 20.4656 58.6556C20.5874 58.8383 20.7701 59.0819 21.0746 59.3256C21.3792 59.5692 21.7446 59.7519 22.2928 59.9956C22.7801 60.1783 23.2674 60.3001 23.6328 60.361C23.9983 60.361 24.3028 60.361 24.5465 60.2392C24.7901 60.1174 24.9728 59.9956 25.1556 59.8128C25.3383 59.6301 25.4601 59.4474 25.521 59.2038L25.5819 59.0819C25.6428 58.8992 25.7037 58.6556 25.7037 58.4119C25.7037 58.1683 25.6428 57.9247 25.521 57.6201C25.3992 57.3765 25.2165 57.1328 24.9119 56.8283C24.6074 56.5847 24.2419 56.341 23.7546 56.1583C23.2065 55.9147 22.7801 55.7928 22.4146 55.7928C22.0492 55.7928 21.7446 55.7928 21.501 55.8538C21.2574 55.9147 21.1356 56.0365 21.0137 56.1583C20.8919 56.2801 20.831 56.341 20.831 56.341L18.5774 55.4274L18.6383 55.3056C18.6992 55.1838 18.7601 55.001 18.8819 54.8183C19.0037 54.6356 19.1865 54.4528 19.3692 54.331C19.5519 54.1483 19.7956 54.0265 20.1001 53.9047C20.4046 53.7828 20.7092 53.7219 21.1356 53.7219C21.5619 53.7219 21.9883 53.7219 22.5365 53.8438C23.0237 53.9656 23.6328 54.0874 24.3028 54.3919L24.6074 54.6356Z" fill="white"/>
<path d="M12.8518 56.0367L16.6891 52.0776L13.0345 48.5449L14.3136 47.2658L19.6127 52.3822L14.5573 57.6204L12.8518 56.0367Z" fill="white"/>
<path d="M4.14185 43.3067L5.60366 42.5758L7.97909 47.4486L8.95363 46.9613L6.63909 42.2104L8.16182 41.4795L10.4764 46.2304L11.5727 45.6822L9.13636 40.6876L10.6591 39.9567L14.07 46.9613L7.49182 50.1895L4.14185 43.3067Z" fill="white"/>
<path d="M3.10639 40.0783L2.80184 35.2665C2.74093 34.5356 2.80184 33.9265 2.86275 33.4392C2.92366 32.891 3.04548 32.4038 3.1673 32.0383C3.28911 31.6729 3.47184 31.3074 3.71548 31.0638C3.8982 30.8201 4.14184 30.5765 4.38548 30.4547C4.62911 30.272 4.87275 30.1501 5.1773 30.0892C5.42093 30.0283 5.72548 29.9674 5.96911 29.9674H6.27365C6.51728 29.9674 6.82183 29.9674 7.06547 30.0283C7.3091 30.0892 7.61365 30.1501 7.91819 30.272C8.16183 30.3938 8.46637 30.5765 8.71001 30.8201C8.95365 31.0638 9.19728 31.3683 9.38001 31.7338C9.56274 32.0992 9.74547 32.5256 9.86728 33.0738C9.9891 33.622 10.1109 34.231 10.1109 34.901L10.4155 39.7738L3.10639 40.0783ZM8.52728 37.5201L8.40547 35.1447C8.34456 34.4747 8.28365 33.9874 8.10092 33.622C7.9791 33.2565 7.79637 32.952 7.55274 32.7692C7.37001 32.5865 7.12637 32.4647 6.94365 32.4038C6.70001 32.282 6.51728 32.282 6.33456 32.282H6.27365C6.09092 32.282 5.90821 32.3429 5.66457 32.4038C5.42093 32.4647 5.2382 32.6474 5.05548 32.8301C4.87275 33.0738 4.75093 33.3783 4.62911 33.7438C4.5682 34.1701 4.5073 34.7183 4.5682 35.3274L4.69002 37.7029L8.52728 37.5201Z" fill="white"/>
<path d="M9.62378 23.5722L11.7556 24.6686L10.7201 26.6786L4.20288 23.3895L6.76105 18.5167C7.0656 17.9076 7.37014 17.4813 7.67469 17.1767C7.97923 16.8722 8.28378 16.6286 8.58832 16.5067C8.89287 16.3849 9.19741 16.324 9.50196 16.3849C9.8065 16.4458 10.1111 16.5067 10.4156 16.6895L10.4765 16.7504C10.7811 16.8722 11.0247 17.1158 11.2074 17.2986C11.3901 17.5422 11.5729 17.7858 11.6338 18.1513C11.6947 18.4558 11.6947 18.8822 11.6338 19.3086C11.5729 19.7349 11.3292 20.2831 11.0247 20.8313L9.62378 23.5722ZM8.16196 22.8413L9.62378 20.0395C9.80651 19.7349 9.86741 19.4304 9.8065 19.2476C9.7456 19.004 9.62378 18.8822 9.44105 18.7604C9.19741 18.6386 9.01469 18.6386 8.83196 18.6995C8.64923 18.7604 8.46651 19.004 8.28378 19.3086L6.82196 22.1104L8.16196 22.8413Z" fill="white"/>
<path d="M17.2372 16.8721L9.62354 13.7657L11.6335 12.1212L17.1763 14.4966L15.6535 8.77116L17.4808 7.24844L19.4908 15.1057L17.2372 16.8721Z" fill="white"/>
<path d="M26.0691 11.8776C25.3991 12.0604 24.79 12.1822 24.2418 12.2431C23.6936 12.304 23.2673 12.2431 22.8409 12.1822C22.4145 12.1213 22.11 11.9386 21.8055 11.8167C21.5009 11.634 21.2573 11.4513 21.0745 11.2076C20.8918 10.964 20.7091 10.7813 20.5873 10.5376C20.4655 10.294 20.3436 10.0504 20.2827 9.86765L20.2218 9.62401C20.1609 9.44128 20.1 9.19765 20.0391 8.8931C19.9782 8.64946 19.9782 8.34492 20.0391 8.04037C20.1 7.73583 20.1609 7.43128 20.2827 7.12674C20.4045 6.82219 20.6482 6.51765 20.9527 6.2131C21.2573 5.90855 21.6227 5.66491 22.11 5.36037C22.5973 5.11673 23.1455 4.8731 23.8764 4.62946L24.2418 4.50764C24.9118 4.32491 25.5209 4.14219 26.0691 4.14219C26.6173 4.08128 27.0436 4.08128 27.47 4.14219C27.8355 4.2031 28.2009 4.264 28.5055 4.44673C28.81 4.56855 28.9927 4.75128 29.1755 4.8731C29.3582 5.05582 29.48 5.23855 29.6018 5.36037C29.7236 5.54309 29.7845 5.66491 29.8455 5.84764L29.9064 5.96946L27.5918 6.70037C27.5918 6.63946 27.5309 6.57856 27.4091 6.45674C27.2873 6.33492 27.1655 6.27401 26.9218 6.15219C26.6782 6.09128 26.4345 6.03037 26.0691 6.03037C25.7036 6.03037 25.2773 6.09128 24.6682 6.27401C24.12 6.45674 23.7545 6.63946 23.45 6.82219C23.1455 7.00492 22.9018 7.24856 22.78 7.49219C22.6582 7.73583 22.5973 7.97946 22.5364 8.2231C22.5364 8.46674 22.5364 8.71037 22.6582 8.8931L22.7191 9.01492C22.78 9.19765 22.9018 9.44128 23.0236 9.62401C23.1455 9.80674 23.3891 9.98946 23.6327 10.1113C23.8764 10.2331 24.1809 10.294 24.5464 10.3549C24.9118 10.3549 25.3382 10.294 25.8864 10.1722C26.4345 9.98946 26.8609 9.80674 27.1655 9.5631C27.47 9.31946 27.6527 9.13674 27.8355 8.95401C27.9573 8.77128 28.0182 8.58856 28.0182 8.40583C28.0182 8.28401 28.0182 8.16219 28.0182 8.10128L30.3327 7.37037L30.3936 7.49219C30.4545 7.61401 30.4545 7.79674 30.4545 8.04037C30.4545 8.28401 30.4545 8.46674 30.3936 8.71037C30.3327 8.95401 30.2109 9.19765 30.0891 9.50219C29.9064 9.74583 29.7236 10.0504 29.4191 10.294C29.1145 10.5376 28.7491 10.8422 28.2618 11.0858C27.7745 11.3295 27.2264 11.5731 26.5564 11.7558L26.0691 11.8776Z" fill="white"/>
<path fill-rule="evenodd" clip-rule="evenodd" d="M26.4547 37.3354C26.4547 36.999 26.7274 36.7263 27.0638 36.7263H33.7963V42.8154H27.8379L27.8318 42.8153C26.6046 42.7907 25.8451 41.8354 25.4903 41.2983C25.3049 41.0176 25.3822 40.6398 25.6629 40.4544C25.9436 40.269 26.3214 40.3462 26.5068 40.6269C26.8369 41.1267 27.285 41.5831 27.8508 41.5972H32.5781V37.9445H27.0638C26.7274 37.9445 26.4547 37.6718 26.4547 37.3354Z" fill="white"/>
<path fill-rule="evenodd" clip-rule="evenodd" d="M28.4809 30.0091L31.0018 35.9408L29.18 34.8885L26.6731 39.2308C26.6731 39.2309 26.6732 39.2308 26.6731 39.2308C26.5438 39.455 26.4384 39.749 26.4051 40.0285C26.3752 40.279 26.4092 40.4553 26.4669 40.5645C26.4823 40.5894 26.4957 40.6105 26.507 40.6276L25.5031 41.3173C25.4684 41.2687 25.437 41.219 25.4086 41.1684C25.1781 40.7897 24.6973 39.9336 24.2129 39.0711C24.1804 39.0134 24.148 38.9556 24.1156 38.8979C23.5124 37.8241 22.925 36.7815 22.735 36.4929L23.2437 36.1579L22.7353 36.4934C22.4417 36.0485 22.3562 35.5367 22.3668 35.1046C22.3771 34.6794 22.4823 34.255 22.6564 33.954L22.6589 33.9496L23.9018 31.8416L22.0862 30.7929L28.4809 30.0091ZM25.4541 31.6074L23.7099 34.5656C23.6608 34.6516 23.5912 34.8641 23.5846 35.1343C23.5781 35.3994 23.6343 35.6441 23.752 35.8224L23.7524 35.8229C23.9733 36.1584 24.5919 37.2585 25.1777 38.3013L25.222 38.3803C25.3138 38.5436 25.4045 38.7051 25.4929 38.8622C25.5322 38.7783 25.5742 38.698 25.618 38.6221L28.6129 33.4343L27.7185 31.3299L25.4541 31.6074Z" fill="white"/>
<path fill-rule="evenodd" clip-rule="evenodd" d="M41.3602 28.7661L44.3403 33.9278L44.3433 33.9333C44.935 35.008 44.4885 36.1432 44.1995 36.7199C44.0488 37.0206 43.6828 37.1422 43.3821 36.9915C43.0813 36.8408 42.9597 36.4748 43.1104 36.1741C43.3784 35.6394 43.5492 35.0227 43.2788 34.5256L40.9143 30.4302L37.7509 32.2568L40.5083 37.0331C40.6765 37.3244 40.5767 37.6969 40.2853 37.8651C39.994 38.0333 39.6215 37.9335 39.4533 37.6422L36.0869 31.8109L41.3602 28.7661Z" fill="white"/>
<path fill-rule="evenodd" clip-rule="evenodd" d="M36.8043 34.6262V36.7286H41.8173C42.0764 36.7286 42.3837 36.6729 42.6424 36.562C42.8741 36.4627 43.0098 36.3452 43.0755 36.2407C43.0894 36.2148 43.101 36.1926 43.1102 36.1743L44.2093 36.6992C44.1845 36.7536 44.1571 36.8058 44.1274 36.8558C43.9151 37.2436 43.4165 38.0838 42.9134 38.9316C42.8782 38.9911 42.8428 39.0506 42.8076 39.11C42.1792 40.1692 41.5702 41.1987 41.4156 41.5074C41.1772 41.984 40.7767 42.3138 40.3975 42.5208C40.0241 42.7245 39.604 42.8457 39.2566 42.8457H39.2512L36.804 42.8236L36.803 44.9196L32.9268 39.7733L36.8043 34.6262ZM35.8251 41.5966L39.2587 41.6275C39.3579 41.6269 39.5768 41.5808 39.814 41.4514C40.0469 41.3243 40.2307 41.1533 40.3261 40.9623C40.5061 40.6031 41.1498 39.5168 41.76 38.4884L41.8128 38.3992C41.9062 38.242 41.9984 38.0865 42.0882 37.9351C41.9957 37.9429 41.9051 37.9467 41.8173 37.9467H35.8279L34.4519 39.7734L35.8251 41.5966Z" fill="white"/>
<path fill-rule="evenodd" clip-rule="evenodd" d="M37.1699 24.2384C36.9433 24.1 36.7033 24.0264 36.4904 24.0391C36.1547 24.0593 35.8661 23.8034 35.846 23.4676C35.8258 23.1318 36.0817 22.8433 36.4175 22.8231C36.9497 22.7912 37.4357 22.9734 37.8046 23.1986C38.1676 23.4202 38.4825 23.7232 38.6561 24.0237L38.659 24.0287L39.8633 26.1591L41.6789 25.1108L39.1604 31.0416L32.7644 30.2584L34.5853 29.2067L33.0009 26.4621C32.8328 26.1708 32.9326 25.7983 33.2239 25.6301C33.5153 25.4619 33.8878 25.5618 34.0559 25.8531L36.1283 29.443L38.3978 29.7209L39.2899 27.62L37.6003 24.6314C37.5501 24.5457 37.4006 24.3792 37.1699 24.2384Z" fill="white"/>
<path fill-rule="evenodd" clip-rule="evenodd" d="M30.8991 22.8042L30.9182 22.8043C31.7995 22.8073 32.6405 22.8131 33.3989 22.8184C34.6798 22.8273 35.7253 22.8346 36.3326 22.8238C36.3738 22.822 36.4152 22.8212 36.4568 22.8214L36.4685 24.0394C36.4385 24.0401 36.4072 24.0408 36.3746 24.0414C35.7622 24.0728 35.1754 24.5046 34.9127 24.9603L30.6852 32.2858L25.4119 29.2404L28.3911 24.0791L28.3944 24.0737C29.0297 23.0243 30.2358 22.8435 30.8801 22.8053L30.8991 22.8042ZM34.0667 24.0412C33.8384 24.0397 33.6005 24.038 33.3547 24.0363C32.6068 24.0312 31.7852 24.0255 30.9337 24.0225C30.3419 24.0601 29.7321 24.222 29.4395 24.6997L27.0758 28.7946L30.2392 30.6215L33.8572 24.3521C33.9176 24.2474 33.9877 24.1432 34.0667 24.0412Z" fill="white"/>
</svg>
