<svg width="67" height="67" viewBox="0 0 67 67" fill="none" xmlns="http://www.w3.org/2000/svg">
<path d="M33.5 67C52.0015 67 67 52.0015 67 33.5C67 14.9985 52.0015 0 33.5 0C14.9985 0 0 14.9985 0 33.5C0 52.0015 14.9985 67 33.5 67Z" fill="#F2F2F2"/>
<path d="M33.8251 20.0849C32.1866 20.12 30.6152 18.7518 30.604 16.7561C30.5965 14.8033 32.1119 13.4039 33.799 13.4C35.5532 13.3961 37.0163 14.8929 37.0125 16.721C37.0088 18.7245 35.4487 20.1005 33.8251 20.0849Z" fill="black"/>
<path d="M27.4202 26.5827C27.409 26.0331 27.3867 25.4797 27.4464 24.93C27.6815 22.8875 29.2939 21.3907 31.2646 21.3907C32.9516 21.3907 34.635 21.3907 36.322 21.3907C36.5198 21.3907 36.7177 21.4024 36.9155 21.4297C38.4905 21.6558 39.8268 22.9889 40.1178 24.6221C40.2336 25.273 40.1776 25.9318 40.1888 26.5866V27.413H27.4016V26.5866H27.4202V26.5827Z" fill="black"/>
<path d="M23.9434 32.7788H28.2113C28.5686 32.7788 28.8634 32.81 29.0957 32.8726C29.3324 32.9351 29.52 33.02 29.6585 33.1272C29.7969 33.2344 29.893 33.3572 29.9466 33.4957C30.0046 33.6297 30.0337 33.7704 30.0337 33.9178V34.0116C30.0337 34.1724 30.0024 34.3108 29.9399 34.427C29.8818 34.5431 29.8103 34.6391 29.7255 34.7151C29.6451 34.791 29.558 34.8513 29.4642 34.896C29.3748 34.9362 29.3011 34.9652 29.2431 34.9831C29.3279 35.0054 29.4307 35.0434 29.5513 35.097C29.6763 35.1461 29.7947 35.2198 29.9064 35.3181C30.018 35.4119 30.1141 35.5347 30.1945 35.6866C30.2749 35.834 30.3151 36.0171 30.3151 36.236V36.3298C30.3151 36.5263 30.2838 36.7117 30.2213 36.8859C30.1587 37.0601 30.0471 37.2119 29.8863 37.3415C29.7299 37.471 29.5178 37.5737 29.2498 37.6497C28.9862 37.7256 28.6535 37.7636 28.2515 37.7636H23.9434V32.7788ZM25.5045 33.8307V34.6414H27.9433C28.0505 34.6414 28.1398 34.6302 28.2113 34.6079C28.2827 34.5855 28.3386 34.5565 28.3788 34.5208C28.419 34.4806 28.4458 34.4359 28.4592 34.3868C28.477 34.3376 28.486 34.2885 28.486 34.2394V34.226C28.486 34.1724 28.477 34.1232 28.4592 34.0786C28.4458 34.0294 28.419 33.987 28.3788 33.9513C28.3386 33.9155 28.2827 33.8865 28.2113 33.8642C28.1398 33.8418 28.0505 33.8307 27.9433 33.8307H25.5045ZM25.5045 35.7V36.6782H28.0773C28.2068 36.6782 28.3118 36.6625 28.3922 36.6313C28.4726 36.6 28.5351 36.5598 28.5798 36.5107C28.6244 36.4615 28.6535 36.4079 28.6669 36.3499C28.6847 36.2918 28.6937 36.2382 28.6937 36.1891V36.1623C28.6937 36.1087 28.6847 36.0551 28.6669 36.0015C28.6535 35.9434 28.6244 35.8943 28.5798 35.8541C28.5351 35.8094 28.4726 35.7737 28.3922 35.7469C28.3118 35.7156 28.2068 35.7 28.0773 35.7H25.5045Z" fill="black"/>
<path d="M34.4114 32.6917C34.934 32.6917 35.383 32.7319 35.7582 32.8123C36.1333 32.8927 36.4504 32.9999 36.7096 33.1339C36.973 33.2679 37.183 33.422 37.3393 33.5962C37.4956 33.7659 37.6162 33.9423 37.7011 34.1255C37.7904 34.3041 37.8485 34.485 37.8753 34.6682C37.9021 34.8468 37.9156 35.0099 37.9156 35.1573V35.3583C37.9156 35.5057 37.9021 35.6687 37.8753 35.8474C37.8485 36.026 37.7927 36.2092 37.7079 36.3968C37.6229 36.5799 37.5001 36.7586 37.3393 36.9328C37.183 37.107 36.9753 37.2633 36.7162 37.4018C36.4571 37.5358 36.1378 37.6452 35.7582 37.7301C35.383 37.8105 34.934 37.8507 34.4114 37.8507H34.1233C33.5962 37.8507 33.1429 37.8105 32.7633 37.7301C32.3881 37.6452 32.0709 37.5358 31.8118 37.4018C31.5527 37.2633 31.3428 37.107 31.182 36.9328C31.0257 36.7586 30.9051 36.5799 30.8202 36.3968C30.7353 36.2092 30.6795 36.026 30.6527 35.8474C30.6259 35.6687 30.6125 35.5057 30.6125 35.3583V35.1573C30.6125 35.0099 30.6259 34.8468 30.6527 34.6682C30.6795 34.485 30.7353 34.3041 30.8202 34.1255C30.9051 33.9423 31.0257 33.7659 31.182 33.5962C31.3428 33.422 31.5527 33.2679 31.8118 33.1339C32.0709 32.9999 32.3881 32.8927 32.7633 32.8123C33.1429 32.7319 33.5962 32.6917 34.1233 32.6917H34.4114ZM36.2807 35.2042C36.2807 35.0612 36.2539 34.9138 36.2003 34.762C36.1512 34.6056 36.053 34.4649 35.9056 34.3399C35.7582 34.2103 35.5526 34.1054 35.2891 34.025C35.0256 33.9401 34.6839 33.8977 34.264 33.8977C33.8352 33.8977 33.489 33.9401 33.2255 34.025C32.962 34.1054 32.7565 34.2103 32.6091 34.3399C32.4662 34.4649 32.3701 34.6056 32.321 34.762C32.2719 34.9138 32.2474 35.0612 32.2474 35.2042V35.2846C32.2474 35.4275 32.2719 35.5794 32.321 35.7402C32.3746 35.8965 32.4751 36.0417 32.6225 36.1757C32.7699 36.3097 32.9754 36.4213 33.2389 36.5107C33.5024 36.5955 33.8441 36.638 34.264 36.638C34.6839 36.638 35.0233 36.5955 35.2824 36.5107C35.5459 36.4258 35.7514 36.3186 35.8988 36.1891C36.0462 36.0551 36.1467 35.9099 36.2003 35.7536C36.2539 35.5928 36.2807 35.4409 36.2807 35.298V35.2042Z" fill="black"/>
<path d="M40.0433 35.834L37.3767 32.7788H39.313L40.8607 34.6146L42.4352 32.7788H44.1973L41.6044 35.834V37.7636H40.0433V35.834Z" fill="black"/>
<path d="M21.5876 40.697V41.8293H17.9897V42.5663H21.5005V43.7053H17.9897V45.6818H16.4353V40.697H21.5876Z" fill="black"/>
<path d="M23.8067 42.8075H26.1718C26.3951 42.8075 26.5559 42.7606 26.6542 42.6668C26.7525 42.573 26.8016 42.4568 26.8016 42.3184V42.3117C26.8016 42.1821 26.7525 42.0705 26.6542 41.9767C26.5604 41.8784 26.3996 41.8293 26.1718 41.8293H23.8067V42.8075ZM23.8067 45.6818H22.2456V40.697H26.2656C26.681 40.697 27.0272 40.7305 27.3041 40.7975C27.581 40.8645 27.8021 40.9583 27.9674 41.0789C28.1371 41.195 28.2555 41.3312 28.3225 41.4876C28.394 41.6439 28.4297 41.8114 28.4297 41.9901V42.0705C28.4297 42.2491 28.3962 42.401 28.3292 42.5261C28.2667 42.6511 28.1863 42.7583 28.088 42.8477C27.9942 42.9325 27.8937 42.9995 27.7865 43.0487C27.6793 43.0978 27.5855 43.1358 27.5051 43.1626C27.6302 43.1982 27.7508 43.2474 27.8669 43.31C27.983 43.3725 28.0835 43.4528 28.1684 43.5512C28.2533 43.645 28.3203 43.7543 28.3694 43.8795C28.423 44.0045 28.4498 44.1475 28.4498 44.3083V45.0386C28.4498 45.2396 28.4587 45.3824 28.4766 45.4674C28.4989 45.5478 28.5213 45.6081 28.5436 45.6483V45.6818H26.9557C26.9334 45.6504 26.9155 45.6125 26.9021 45.5679C26.8887 45.5231 26.882 45.4561 26.882 45.3669V44.7907C26.882 44.4869 26.8038 44.2658 26.6475 44.1274C26.4956 43.9844 26.2276 43.913 25.8435 43.913H23.8067V45.6818Z" fill="black"/>
<path d="M30.6243 45.6818H29.0632V40.697H30.6243V45.6818Z" fill="black"/>
<path d="M36.6388 40.697V41.8293H32.927V42.5663H36.5517V43.7053H32.927V44.5227H36.7058V45.6818H31.386V40.697H36.6388Z" fill="black"/>
<path d="M39.0953 40.697L42.2778 43.8326V40.697H43.8188V45.6818H42.2778L38.8943 42.3787V45.6818H37.3533V40.697H39.0953Z" fill="black"/>
<path d="M44.5833 40.697H47.8864C48.3688 40.697 48.7886 40.7305 49.146 40.7975C49.5078 40.86 49.8182 40.947 50.0773 41.0588C50.3408 41.1704 50.5574 41.3022 50.7272 41.4541C50.8969 41.6059 51.0309 41.7712 51.1292 41.9499C51.2319 42.1241 51.3034 42.305 51.3436 42.4926C51.3838 42.6802 51.4039 42.8678 51.4039 43.0554V43.2564C51.4039 43.435 51.3838 43.6203 51.3436 43.8125C51.3078 44.0001 51.2408 44.1831 51.1426 44.3619C51.0443 44.5405 50.9103 44.7103 50.7406 44.8711C50.5708 45.0319 50.3564 45.1726 50.0974 45.2932C49.8383 45.4138 49.5279 45.5097 49.1661 45.5813C48.8043 45.6483 48.3799 45.6818 47.8931 45.6818H44.5833V40.697ZM46.1444 44.4825H47.7658C48.208 44.4825 48.5608 44.44 48.8244 44.3552C49.0879 44.2658 49.2889 44.1586 49.4274 44.0336C49.5703 43.904 49.6619 43.7656 49.7021 43.6182C49.7467 43.4662 49.7691 43.3255 49.7691 43.1961V43.1559C49.7691 43.0307 49.749 42.8946 49.7088 42.7472C49.6686 42.5952 49.5792 42.4545 49.4408 42.3251C49.3023 42.1955 49.0991 42.0883 48.8311 42.0035C48.5675 41.9186 48.2124 41.8762 47.7658 41.8762H46.1444V44.4825Z" fill="black"/>
<path d="M32.1513 48.6151V49.7474H28.5534V50.4844H32.0642V51.6234H28.5534V53.5999H26.999V48.6151H32.1513Z" fill="black"/>
<path d="M34.3702 53.5999H32.8091V48.6151H34.3702V53.5999Z" fill="black"/>
<path d="M37.0815 49.7943H34.9375V48.6151H40.8067V49.7943H38.656V53.5999H37.0815V49.7943Z" fill="black"/>
</svg>
